<svg width="32" height="32" viewBox="0 0 32 32" fill="none" xmlns="http://www.w3.org/2000/svg">
<rect width="32" height="32" rx="16" fill="#F9F9F8"/>
<path d="M16.0527 7.66016C17.0571 7.67771 18.0501 7.83516 18.9844 8.17969C20.4559 8.72863 21.4481 10.1597 21.4482 11.7422V12.6592H22.208C23.195 12.6592 24.0592 13.343 24.252 14.2891C24.4096 15.0541 24.1759 15.7663 23.627 16.2686C23.2181 16.6482 22.6573 16.8291 22.0967 16.8291H18.5283C18.2189 16.8291 17.915 16.888 17.6289 16.9697C18.2129 17.6938 18.5695 18.5872 18.6279 19.5273C20.0062 19.615 21.279 20.3221 22.0732 21.4609L22.4062 21.9336L22.0732 22.4131C21.2264 23.6217 19.8308 24.3457 18.3477 24.3457H16.0879C13.787 24.3457 11.649 23.4289 10.0547 21.7646C8.46616 20.1002 7.65464 17.9094 7.75977 15.6025C7.95857 11.246 11.6786 7.68352 16.0527 7.66016ZM16.2217 17.8574C15.7429 18.3888 15.4688 19.0777 15.4688 19.8076C15.4688 19.9361 15.4805 20.059 15.498 20.1875C15.5097 20.2575 15.5206 20.3276 15.5381 20.4033C15.5498 20.4676 15.5616 20.5324 15.5791 20.5908C15.8653 21.5484 16.6129 22.3133 17.6172 22.582C18.5457 22.8098 19.5912 22.5818 20.3037 21.9336C19.7781 21.449 19.0834 21.1748 18.3477 21.1748C18.19 21.1748 18.0494 21.1866 17.915 21.2158C17.3429 21.3265 16.8354 20.8241 16.9463 20.2402C16.9696 20.1118 16.9814 19.9653 16.9814 19.8076C16.9814 19.0777 16.7063 18.383 16.2217 17.8574ZM16.0586 9.31934C12.5545 9.33102 9.57572 12.1864 9.41211 15.6846C9.32451 17.5301 9.97882 19.2886 11.2578 20.6201C12.2155 21.6244 13.4244 22.29 14.75 22.5586C14.7383 22.5411 14.7265 22.5292 14.7148 22.5117C14.6915 22.4768 14.6561 22.4479 14.6328 22.4072C14.5978 22.3664 14.5809 22.3133 14.5518 22.2725C14.4875 22.1732 14.4285 22.0739 14.3701 21.9746C14.3176 21.8695 14.2596 21.7642 14.2129 21.6533C14.1603 21.5365 14.1073 21.4078 14.0664 21.2852C14.0489 21.2328 14.0263 21.1803 14.0088 21.1279C13.9446 20.9235 13.8973 20.7132 13.8623 20.5029C13.8214 20.252 13.7979 20.0009 13.7979 19.7441C13.7979 19.6216 13.8038 19.4985 13.8154 19.376C13.9381 17.846 14.8609 16.5318 16.1572 15.8018L16.2217 15.7607H16.2275C16.9166 15.387 17.6991 15.1709 18.5283 15.1709H22.1963C22.3364 15.1709 22.4652 15.1119 22.5586 15.001C22.6053 14.9425 22.6745 14.8261 22.6455 14.6689C22.5988 14.4471 22.4124 14.3125 22.208 14.3125H16.0879V12.6592H19.79V11.7422C19.7899 10.8489 19.2353 10.0429 18.4121 9.7334C17.6705 9.45896 16.8878 9.31939 16.082 9.31934H16.0586ZM14.2246 12.3613C14.8437 12.3613 15.3525 12.8634 15.3525 13.4883C15.3525 14.1073 14.8437 14.6152 14.2246 14.6152C13.6058 14.615 13.0977 14.1072 13.0977 13.4883C13.0977 12.8694 13.6058 12.3616 14.2246 12.3613Z" fill="black"/>
</svg>
