<svg width="16" height="16" viewBox="0 0 16 16" fill="none" xmlns="http://www.w3.org/2000/svg">
<rect width="16" height="16" rx="8" fill="#F9F9F8"/>
<path d="M8.02539 3.82812C8.52756 3.83688 9.02407 3.91567 9.49121 4.08789C10.2271 4.36238 10.7236 5.0778 10.7236 5.86914V6.32715H11.1035C11.5969 6.32717 12.0295 6.66873 12.126 7.1416C12.2048 7.524 12.0878 7.88072 11.8135 8.13184C11.6091 8.32164 11.3282 8.41211 11.0479 8.41211H9.26367C9.10906 8.41213 8.95741 8.4416 8.81445 8.48242C9.10636 8.84448 9.28428 9.29167 9.31348 9.76172C10.0025 9.80552 10.639 10.1583 11.0361 10.7275L11.2031 10.9648L11.0361 11.2041C10.6127 11.8084 9.91445 12.1709 9.17285 12.1709H8.04297C6.89255 12.1708 5.82349 11.712 5.02637 10.8799C4.23219 10.0477 3.82635 8.9522 3.87891 7.79883C3.97829 5.62064 5.83845 3.83997 8.02539 3.82812ZM8.11035 8.92578C7.87094 9.19147 7.73343 9.53641 7.7334 9.90137C7.7334 9.96561 7.73929 10.0276 7.74805 10.0918C7.75385 10.1266 7.75985 10.1615 7.76855 10.1992C7.77439 10.2313 7.7803 10.2638 7.78906 10.293C7.93217 10.7718 8.30638 11.1538 8.80859 11.2881C9.27271 11.4019 9.79517 11.2887 10.1514 10.9648C9.88856 10.7225 9.54078 10.585 9.17285 10.585C9.09419 10.585 9.02407 10.5909 8.95703 10.6055C8.67095 10.6608 8.41719 10.4091 8.47266 10.1172C8.48428 10.053 8.49023 9.98004 8.49023 9.90137C8.4902 9.53641 8.35269 9.18855 8.11035 8.92578ZM8.02832 4.65723C6.27644 4.66323 4.78787 6.09086 4.70605 7.83984C4.66226 8.76255 4.98848 9.64185 5.62793 10.3076C6.10682 10.8099 6.71214 11.143 7.375 11.2773C7.36926 11.2687 7.36316 11.2624 7.35742 11.2539C7.3458 11.2365 7.32809 11.2215 7.31641 11.2012C7.29891 11.1808 7.28996 11.1542 7.27539 11.1338C7.24327 11.0841 7.21377 11.034 7.18457 10.9844C7.15835 10.932 7.12876 10.8795 7.10547 10.8242C7.07927 10.766 7.0536 10.7018 7.0332 10.6406C7.02446 10.6144 7.01266 10.5878 7.00391 10.5615C6.97179 10.4593 6.94818 10.3541 6.93066 10.249C6.91022 10.1235 6.89844 9.99762 6.89844 9.86914C6.89845 9.80795 6.9014 9.74674 6.90723 9.68555C6.96854 8.92054 7.42995 8.26347 8.07812 7.89844L8.11035 7.87793H8.11328C8.45781 7.69107 8.84907 7.58303 9.26367 7.58301H11.0977C11.1677 7.583 11.2316 7.5535 11.2783 7.49805C11.3017 7.46886 11.3368 7.4108 11.3223 7.33203C11.2989 7.22108 11.2057 7.15334 11.1035 7.15332H8.04297V6.32715H9.89453V5.86914C9.89453 5.42237 9.61681 5.01902 9.20508 4.86426C8.83433 4.7271 8.44289 4.65723 8.04004 4.65723H8.02832ZM7.1123 6.17773C7.42172 6.17787 7.67578 6.42982 7.67578 6.74219C7.67552 7.05141 7.42156 7.30553 7.1123 7.30566C6.80294 7.30566 6.54909 7.0515 6.54883 6.74219C6.54883 6.43266 6.80278 6.17773 7.1123 6.17773Z" fill="black"/>
</svg>
