<svg width="1298" height="485" viewBox="0 0 1298 485" fill="none" xmlns="http://www.w3.org/2000/svg">
<path d="M559.106 670.509C561.768 668.972 563.668 666.113 563.67 662.602L563.682 376.619C563.681 366.816 558.448 357.752 549.958 352.85L164.781 130.492C161.759 128.747 158.354 128.964 155.711 130.49C153.068 132.016 151.178 134.856 151.177 138.346L151.163 424.417C151.164 434.233 156.401 443.302 164.901 448.212L549.976 670.508C553.017 672.262 556.443 672.046 559.106 670.509Z" fill="#F3F2F0"/>
<path d="M549.964 352.852C558.454 357.754 563.687 366.818 563.688 376.621L563.676 662.604C563.674 666.115 561.774 668.974 559.112 670.511L572.896 662.553C575.559 661.015 577.461 658.162 577.46 654.645L577.472 368.663C577.471 358.86 572.238 349.796 563.749 344.893L178.572 122.536C175.549 120.791 172.144 121.008 169.501 122.534L155.717 130.492C158.36 128.966 161.764 128.749 164.787 130.494L549.964 352.852Z" fill="#F3F2F0"/>
<path d="M559.106 670.509C561.768 668.972 563.668 666.113 563.67 662.602L563.682 376.619C563.681 366.816 558.448 357.752 549.958 352.85L164.781 130.492C161.759 128.747 158.354 128.964 155.711 130.49C153.068 132.016 151.178 134.856 151.177 138.346L151.163 424.417C151.164 434.233 156.401 443.302 164.901 448.212L549.976 670.508C553.017 672.262 556.443 672.046 559.106 670.509Z" stroke="#303030" stroke-width="0.862119" stroke-miterlimit="10"/>
<path d="M559.105 670.511L572.889 662.553C575.552 661.015 577.454 658.162 577.453 654.645L577.465 368.663C577.464 358.86 572.231 349.796 563.742 344.893L178.565 122.536C175.542 120.791 172.137 121.008 169.494 122.534L155.71 130.492" stroke="#303030" stroke-width="0.862119" stroke-miterlimit="10"/>
<path d="M164.903 154.16C164.902 153.026 166.128 152.318 167.115 152.883C168.456 153.657 169.285 155.093 169.285 156.642C169.286 157.776 168.06 158.484 167.073 157.919C165.732 157.145 164.902 155.709 164.903 154.16Z" fill="#303030" stroke="#303030" stroke-width="0.577948" stroke-miterlimit="10"/>
<path d="M188.059 167.531C188.058 166.397 189.284 165.689 190.271 166.254C191.612 167.028 192.442 168.465 192.441 170.013C192.442 171.147 191.216 171.855 190.229 171.29C188.888 170.516 188.059 169.08 188.059 167.531Z" fill="#303030" stroke="#303030" stroke-width="0.577948" stroke-miterlimit="10"/>
<path d="M176.626 160.852C176.625 159.718 177.851 159.01 178.838 159.574C180.179 160.348 181.009 161.785 181.008 163.333C181.009 164.467 179.783 165.175 178.796 164.611C177.455 163.837 176.626 162.4 176.626 160.852Z" fill="#303030" stroke="#303030" stroke-width="0.577948" stroke-miterlimit="10"/>
<path d="M265.152 283.695L422.257 374.392" stroke="#303030" stroke-width="0.862119" stroke-miterlimit="10"/>
<path d="M265.135 410.746L422.259 501.452" stroke="#303030" stroke-width="0.862119" stroke-miterlimit="10"/>
<path d="M1279.15 550.126C1281.81 548.589 1283.71 545.73 1283.71 542.219L1283.73 256.236C1283.73 246.433 1278.49 237.369 1270 232.467L884.825 10.1092C881.803 8.36425 878.398 8.58156 875.755 10.1073C873.112 11.6331 871.222 14.4731 871.221 17.9636L871.207 304.034C871.208 313.85 876.445 322.92 884.945 327.829L1270.02 550.125C1273.06 551.88 1276.49 551.664 1279.15 550.126Z" fill="white"/>
<path d="M1270.01 232.469C1278.5 237.371 1283.73 246.435 1283.73 256.239L1283.72 542.221C1283.72 545.732 1281.82 548.591 1279.15 550.128L1292.94 542.17C1295.6 540.633 1297.5 537.779 1297.5 534.263L1297.52 248.28C1297.51 238.477 1292.28 229.413 1283.79 224.511L898.615 2.15294C895.592 0.407938 892.187 0.625252 889.545 2.15103L875.76 10.1094C878.403 8.58359 881.808 8.36628 884.831 10.1113L1270.01 232.469Z" fill="#F3F2F0"/>
<path d="M1279.15 550.126C1281.81 548.589 1283.71 545.73 1283.71 542.219L1283.73 256.236C1283.73 246.433 1278.49 237.369 1270 232.467L884.825 10.1092C881.803 8.36424 878.398 8.58156 875.755 10.1073C873.112 11.6331 871.222 14.4731 871.221 17.9636L871.207 304.034C871.208 313.85 876.445 322.92 884.945 327.829L1270.02 550.125C1273.06 551.88 1276.49 551.664 1279.15 550.126Z" stroke="#303030" stroke-width="0.862119" stroke-miterlimit="10"/>
<path d="M1279.15 550.128L1292.93 542.17C1295.6 540.633 1297.5 537.779 1297.5 534.263L1297.51 248.28C1297.51 238.477 1292.27 229.413 1283.79 224.511L898.608 2.15294C895.585 0.407938 892.18 0.625253 889.538 2.15103L875.753 10.1094" stroke="#303030" stroke-width="0.862119" stroke-miterlimit="10"/>
<path d="M1063.74 383.062L1063.75 161.351" stroke="#303030" stroke-width="0.862119" stroke-miterlimit="10"/>
<path d="M1063.74 383.06C1010.95 352.583 967.749 277.76 967.74 216.783C967.731 155.805 1010.94 130.861 1063.75 161.352C1116.56 191.843 1159.76 266.665 1159.75 327.629C1159.74 388.592 1116.53 413.536 1063.74 383.06Z" stroke="#303030" stroke-width="0.862119" stroke-miterlimit="10"/>
<path d="M884.947 33.7774C884.946 32.6434 886.172 31.9354 887.159 32.5002C888.5 33.2741 889.329 34.7106 889.329 36.259C889.33 37.3931 888.104 38.1011 887.117 37.5363C885.776 36.7623 884.946 35.3259 884.947 33.7774Z" fill="#303030" stroke="#303030" stroke-width="0.577948" stroke-miterlimit="10"/>
<path d="M908.102 47.1485C908.102 46.0144 909.328 45.3065 910.315 45.8713C911.656 46.6452 912.485 48.0817 912.485 49.6301C912.486 50.7642 911.259 51.4722 910.273 50.9074C908.932 50.1334 908.102 48.6969 908.102 47.1485Z" fill="#303030" stroke="#303030" stroke-width="0.577948" stroke-miterlimit="10"/>
<path d="M896.669 40.4688C896.669 39.3348 897.895 38.6268 898.882 39.1916C900.223 39.9655 901.052 41.402 901.052 42.9505C901.053 44.0845 899.826 44.7925 898.84 44.2277C897.498 43.4537 896.669 42.0173 896.669 40.4688Z" fill="#303030" stroke="#303030" stroke-width="0.577948" stroke-miterlimit="10"/>
<path d="M1029.35 252.358C1029.36 191.214 1044.83 150.12 1063.75 161.035C1082.66 171.953 1098.13 230.915 1098.13 292.059C1098.13 353.203 1082.65 394.298 1063.74 383.382C1044.82 372.467 1029.35 313.502 1029.35 252.358Z" stroke="#303030" stroke-width="0.862119" stroke-miterlimit="10"/>
<path d="M994.939 232.465C994.94 171.321 1025.89 139.158 1063.71 160.991C1101.54 182.825 1132.48 250.721 1132.48 311.865C1132.48 373.009 1101.53 405.172 1063.71 383.338C1025.88 361.505 994.937 293.609 994.939 232.465Z" stroke="#303030" stroke-width="0.862119" stroke-miterlimit="10"/>
<path d="M948.729 227.734C953.84 236.405 960.877 244.003 968.588 248.454L1159.42 358.62C1167.13 363.074 1174.03 363.528 1178.97 360.852C1183.9 358.181 1187.04 352.294 1187.04 343.671C1187.04 335.048 1183.89 325.352 1178.78 316.68C1173.67 308.009 1166.63 300.412 1158.92 295.96L968.089 185.794C960.375 181.34 953.473 180.887 948.536 183.563C943.607 186.234 940.46 192.122 940.461 200.744C940.463 209.366 943.619 219.063 948.729 227.734Z" fill="url(#paint0_linear_286_14)" stroke="#303030"/>
<path d="M967.476 200.74L967.469 232.503" stroke="#303030" stroke-width="0.862119" stroke-miterlimit="10"/>
<path d="M985.195 163.312L1142.3 254.009" stroke="#303030" stroke-width="0.862119" stroke-miterlimit="10"/>
<path d="M985.179 290.363L1142.3 381.069" stroke="#303030" stroke-width="0.862119" stroke-miterlimit="10"/>
<g clip-path="url(#clip0_286_14)">
<path d="M1118.8 385.536V670.272C1118.8 674.668 1117.28 677.798 1114.82 679.323L1114.63 679.439C1112.06 680.912 1108.53 680.704 1104.65 678.457L721.517 456.717C713.738 452.217 707.37 441.162 707.37 432.156V147.42C707.37 142.938 708.949 139.773 711.49 138.288C714.06 136.775 717.61 136.971 721.517 139.235L1104.65 360.975C1112.43 365.475 1118.8 376.531 1118.8 385.536Z" fill="#F3F2F0"/>
<path d="M711.485 138.283L725.195 130.353L725.241 130.324C727.805 128.839 731.338 129.047 735.228 131.3L1118.37 353.034C1126.15 357.54 1132.51 368.59 1132.51 377.601V662.337C1132.51 666.732 1130.99 669.863 1128.53 671.394L1114.82 679.325C1117.28 677.8 1118.8 674.669 1118.8 670.273V385.537C1118.8 376.532 1112.43 365.476 1104.65 360.976L721.518 139.237C717.611 136.972 714.061 136.776 711.491 138.289L711.485 138.283Z" fill="#F3F2F0"/>
<path d="M749.087 171.107C750.62 171.99 751.871 174.162 751.871 175.936C751.871 177.709 750.62 178.431 749.087 177.541C747.56 176.658 746.31 174.486 746.31 172.718C746.31 170.951 747.56 170.223 749.087 171.107Z" fill="black"/>
<path d="M736.974 164.189C738.501 165.073 739.757 167.244 739.757 169.018C739.757 170.791 738.501 171.513 736.974 170.624C735.447 169.74 734.196 167.568 734.196 165.8C734.196 164.033 735.447 163.305 736.974 164.189Z" fill="black"/>
<path d="M724.86 157.269C726.387 158.153 727.637 160.325 727.637 162.098C727.637 163.871 726.387 164.588 724.86 163.704C723.327 162.82 722.076 160.648 722.076 158.875C722.076 157.102 723.327 156.385 724.86 157.269Z" fill="black"/>
<path d="M1114.82 679.32C1117.28 677.795 1118.8 674.664 1118.8 670.268V385.532C1118.8 376.527 1112.43 365.471 1104.65 360.971L721.515 139.232C717.608 136.967 714.058 136.771 711.488 138.284C708.947 139.769 707.368 142.934 707.368 147.416V432.152C707.368 441.158 713.736 452.213 721.515 456.713L1104.65 678.453C1108.53 680.7 1112.06 680.908 1114.62 679.435" stroke="black" stroke-width="0.862119" stroke-miterlimit="10"/>
<path d="M1114.62 679.436L1114.82 679.321L1128.53 671.39C1130.99 669.859 1132.51 666.728 1132.51 662.333V377.597C1132.51 368.586 1126.14 357.536 1118.36 353.03L735.226 131.296C731.336 129.043 727.803 128.835 725.239 130.32L725.193 130.349L711.483 138.28" stroke="black" stroke-width="0.862119" stroke-miterlimit="10"/>
</g>
<g clip-path="url(#clip1_286_14)">
<path d="M411.801 256.536V541.272C411.801 545.668 410.286 548.798 407.825 550.323L407.629 550.439C405.065 551.912 401.538 551.704 397.654 549.457L14.5212 327.717C6.74141 323.217 0.373535 312.162 0.373535 303.156V18.4204C0.373535 13.938 1.95254 10.7726 4.49392 9.2881C7.06412 7.77471 10.614 7.9711 14.5212 10.2354L397.654 231.975C405.434 236.475 411.801 247.531 411.801 256.536Z" fill="white"/>
<path d="M4.48877 9.28344L18.1984 1.35261L18.2445 1.32373C20.809 -0.160779 24.3416 0.0471674 28.2314 2.29992L411.37 224.034C419.15 228.54 425.512 239.59 425.512 248.601V533.337C425.512 537.732 423.996 540.863 421.535 542.394L407.826 550.325C410.287 548.8 411.802 545.669 411.802 541.273V256.537C411.802 247.532 405.434 236.476 397.655 231.976L14.5218 10.2365C10.6146 7.97223 7.06473 7.77583 4.49453 9.28922L4.48877 9.28344Z" fill="white"/>
<path d="M301.93 303.564C317.104 312.344 329.517 333.815 329.517 351.276C329.517 368.738 317.104 375.843 301.93 367.063L110.249 256.124C95.0751 247.344 82.6621 225.873 82.6621 208.412C82.6621 190.95 95.0751 183.845 110.249 192.625L301.93 303.564Z" fill="url(#paint1_linear_286_14)"/>
<path d="M42.0911 42.1067C43.624 42.9905 44.8746 45.1624 44.8746 46.9357C44.8746 48.709 43.624 49.431 42.0911 48.5415C40.564 47.6577 39.3135 45.4858 39.3135 43.7183C39.3135 41.9507 40.564 41.2229 42.0911 42.1067Z" fill="black"/>
<path d="M29.9779 35.1887C31.505 36.0725 32.7613 38.2444 32.7613 40.0177C32.7613 41.791 31.505 42.5131 29.9779 41.6235C28.4507 40.7397 27.2002 38.5679 27.2002 36.8003C27.2002 35.0328 28.4507 34.305 29.9779 35.1887Z" fill="black"/>
<path d="M17.8635 28.2691C19.3906 29.1528 20.6412 31.3247 20.6412 33.098C20.6412 34.8714 19.3906 35.5876 17.8635 34.7038C16.3306 33.8201 15.0801 31.6482 15.0801 29.8749C15.0801 28.1016 16.3306 27.3853 17.8635 28.2691Z" fill="black"/>
<path d="M407.823 550.32C410.284 548.795 411.8 545.664 411.8 541.268V256.532C411.8 247.527 405.432 236.471 397.652 231.971L14.5192 10.2315C10.612 7.9672 7.06217 7.7708 4.49197 9.28419C1.95058 10.7687 0.371582 13.9341 0.371582 18.4165V303.152C0.371582 312.158 6.73945 323.213 14.5192 327.713L397.652 549.453C401.536 551.7 405.063 551.908 407.627 550.435" stroke="black" stroke-width="0.862119" stroke-miterlimit="10"/>
<path d="M407.628 550.436L407.824 550.321L421.534 542.39C423.994 540.859 425.51 537.728 425.51 533.333V248.597C425.51 239.586 419.148 228.536 411.368 224.03L28.2295 2.29601C24.3396 0.0432612 20.807 -0.164685 18.2426 1.31982L18.1965 1.3487L4.48682 9.27953" stroke="black" stroke-width="0.862119" stroke-miterlimit="10"/>
<path d="M110.243 192.625C95.0698 183.845 82.6567 190.95 82.6567 208.412C82.6567 225.873 95.0698 247.344 110.243 256.124L301.925 367.063C317.098 375.843 329.511 368.738 329.511 351.276C329.511 333.815 317.098 312.344 301.925 303.564L110.243 192.625Z" stroke="black" stroke-width="0.862119" stroke-miterlimit="10"/>
<path d="M123.799 216.348V248.094" stroke="black" stroke-width="0.862119" stroke-miterlimit="10"/>
</g>
<defs>
<linearGradient id="paint0_linear_286_14" x1="928.866" y1="194.336" x2="1257.7" y2="287.377" gradientUnits="userSpaceOnUse">
<stop offset="0.43131" stop-color="#F3F2F0"/>
<stop offset="1" stop-color="#AEEBD1"/>
</linearGradient>
<linearGradient id="paint1_linear_286_14" x1="82.6621" y1="188.859" x2="358.707" y2="399.134" gradientUnits="userSpaceOnUse">
<stop offset="0.43131" stop-color="#F3F2F0"/>
<stop offset="1" stop-color="#AEEBD1"/>
</linearGradient>
<clipPath id="clip0_286_14">
<rect width="425.887" height="551.756" fill="white" transform="translate(706.996 129)"/>
</clipPath>
<clipPath id="clip1_286_14">
<rect width="425.887" height="551.756" fill="white"/>
</clipPath>
</defs>
</svg>
