<svg width="122" height="25" viewBox="0 0 122 25" fill="none" xmlns="http://www.w3.org/2000/svg">
<path fill-rule="evenodd" clip-rule="evenodd" d="M20.6361 13.6887C21.4425 13.6887 22.249 13.4282 22.837 12.8822C23.6266 12.1598 23.9626 11.1349 23.7358 10.0345C23.4586 8.67361 22.2154 7.69076 20.7957 7.69076H19.7036V6.37189C19.7036 4.09538 18.2756 2.03728 16.1586 1.24764C14.8146 0.752013 13.3865 0.525201 11.9416 0.5C5.64972 0.533602 0.298654 5.65786 0.0130402 11.9246C-0.138167 15.2427 1.02949 18.3929 3.31441 20.787C5.60772 23.1811 8.68227 24.5 11.992 24.5H15.243C17.3767 24.5 19.3844 23.4583 20.6025 21.7195L21.0813 21.0306L20.6025 20.3502C19.46 18.7121 17.6287 17.6957 15.6462 17.5697C15.5622 16.2172 15.0498 14.9319 14.2098 13.8903C14.6214 13.7727 15.0582 13.6887 15.5034 13.6887H20.6361ZM14.6214 19.9974C14.8146 19.9554 15.0162 19.9386 15.243 19.9386C16.3015 19.9386 17.3011 20.3334 18.0571 21.0306C17.0323 21.9631 15.5286 22.2907 14.193 21.9631C12.7481 21.5767 11.6728 20.4762 11.2612 19.0985C11.236 19.0145 11.2192 18.9221 11.2024 18.8297C11.1772 18.7205 11.1604 18.6197 11.1436 18.5189C11.1184 18.3341 11.1016 18.1577 11.1016 17.9729C11.1016 16.9228 11.4964 15.9316 12.1853 15.1671C12.8825 15.9232 13.2773 16.9228 13.2773 17.9729C13.2773 18.1997 13.2605 18.4097 13.2269 18.5945C13.0673 19.4345 13.7981 20.157 14.6214 19.9974ZM12.1937 12.1514H12.1853L12.0928 12.2102C10.228 13.2602 8.90069 15.1503 8.72428 17.3512C8.70748 17.5277 8.69907 17.7041 8.69907 17.8805C8.69907 18.2501 8.73268 18.6113 8.79148 18.9725C8.84188 19.2749 8.90909 19.5774 9.00149 19.8714C9.01409 19.9092 9.02879 19.947 9.04349 19.9848C9.05819 20.0226 9.07289 20.0604 9.08549 20.0982C9.1443 20.2746 9.2199 20.4594 9.2955 20.6274C9.34359 20.7416 9.40027 20.8515 9.45632 20.9602L9.45634 20.9602L9.45636 20.9602C9.47864 21.0034 9.50082 21.0464 9.52232 21.0894C9.60632 21.2322 9.69032 21.375 9.78273 21.5179C9.80077 21.5431 9.81572 21.5715 9.83089 21.6003C9.85104 21.6385 9.87159 21.6775 9.90034 21.7111C9.91935 21.7443 9.94376 21.7722 9.96745 21.7993C9.98561 21.8201 10.0034 21.8404 10.0179 21.8623C10.0263 21.8749 10.0347 21.8854 10.0431 21.8959C10.0515 21.9064 10.0599 21.9169 10.0683 21.9295C8.16145 21.5431 6.42256 20.5854 5.04489 19.1405C3.2052 17.2252 2.26435 14.6967 2.39036 12.0422C2.62557 7.01033 6.90979 2.90252 11.95 2.88572H11.9836C13.1429 2.88572 14.2686 3.08733 15.3354 3.48215C16.5199 3.92737 17.3179 5.08663 17.3179 6.37189V7.69076H11.992V10.0681H20.7957C21.0897 10.0681 21.3585 10.2613 21.4257 10.5805C21.4677 10.8073 21.3669 10.9753 21.2997 11.0593C21.1653 11.2189 20.9805 11.3029 20.7789 11.3029H15.5034C14.3106 11.3029 13.1849 11.6138 12.1937 12.1514ZM36.737 5.59307L43.1465 20.067H40.6264L39.2991 16.9H31.6464L30.3191 20.067H27.799L34.2085 5.59307H36.7286H36.737ZM38.4087 14.8335L35.4686 7.84438L32.5284 14.8335H38.4003H38.4087ZM47.2117 5.59307V20.067H44.6916V5.59307H47.2117ZM51.9672 11.5907V9.72577H49.489V20.0667H51.9672V14.3796C51.9672 12.6659 53.2272 11.5487 54.7393 11.5487C56.7386 11.5487 57.2594 12.6491 57.2594 14.2788V20.0667H59.7376V13.6572C59.7376 11.221 58.6623 9.52416 55.8314 9.52416C54.2185 9.52416 52.7904 10.3054 51.9672 11.5907ZM62.7951 9.72493V7.24681H65.2732V9.72493H68.5998V11.7494H65.2732V16.2353C65.2732 17.5793 65.794 18.0329 67.1129 18.0329H68.583V20.0575H66.1804C63.9291 20.0406 62.7867 18.9234 62.7867 16.7477V11.741H61.1738V9.71653H62.7867L62.7951 9.72493ZM77.623 16.5721C77.623 17.4794 76.6066 18.4538 74.8929 18.4538C73.4816 18.4538 72.2468 17.6726 71.9948 15.7069H80.202V14.7576C80.1432 11.7587 78.2363 9.52416 74.7837 9.52416C71.7932 9.52416 69.4326 11.5319 69.4326 14.9004C69.4326 18.269 71.7848 20.2767 74.7837 20.2767C78.1775 20.2767 79.8912 18.395 80.1012 16.5721H77.623ZM72.0368 13.884C72.3728 12.1283 73.5488 11.3387 74.8929 11.3387C76.363 11.3387 77.3962 12.0611 77.665 13.884H72.0368ZM84.4342 9.72577V11.4227C85.1818 10.2634 86.3999 9.52416 87.7608 9.52416H88.7772V11.5487H86.9375C85.4255 11.5487 84.4342 12.5399 84.4342 14.3796V20.0667H81.9561V9.72577H84.4342ZM92.5993 11.5907V9.72577H90.1212V20.0667H92.5993V14.3796C92.5993 12.6659 93.8594 11.5487 95.3715 11.5487C97.3708 11.5487 97.8916 12.6491 97.8916 14.2788V20.0667H100.37V13.6572C100.37 11.221 99.2944 9.52416 96.4635 9.52416C94.8506 9.52416 93.4226 10.3054 92.5993 11.5907ZM107.586 18.4538C109.3 18.4538 110.317 17.4794 110.317 16.5721H112.795C112.585 18.395 110.871 20.2767 107.477 20.2767C104.478 20.2767 102.118 18.269 102.118 14.9004C102.118 11.5319 104.478 9.52416 107.477 9.52416C110.93 9.52416 112.837 11.7587 112.895 14.7576V15.7069H104.688C104.932 17.6726 106.175 18.4538 107.586 18.4538ZM107.583 11.3387C106.24 11.3402 105.066 12.13 104.73 13.884H110.35C110.082 12.0629 109.05 11.3401 107.583 11.3387ZM115.441 7.24681V9.72493L115.432 9.71653H113.819V11.741H115.432V16.7477C115.432 18.9234 116.575 20.0406 118.826 20.0575H121.228V18.0329H119.758C118.439 18.0329 117.919 17.5793 117.919 16.2353V11.7494H121.245V9.72493H117.919V7.24681H115.441ZM9.31375 7.26199C10.2042 7.26199 10.935 7.98443 10.935 8.88327C10.935 9.77372 10.2042 10.5046 9.31375 10.5046C8.42331 10.5046 7.69247 9.77372 7.69247 8.88327C7.69247 7.99283 8.42331 7.26199 9.31375 7.26199Z" fill="black"/>
</svg>
