<svg width="48" height="48" viewBox="0 0 48 48" fill="none" xmlns="http://www.w3.org/2000/svg">
<g clip-path="url(#clip0_56_1019)">
<mask id="mask0_56_1019" style="mask-type:luminance" maskUnits="userSpaceOnUse" x="0" y="0" width="48" height="48">
<path d="M48 0H0V48H48V0Z" fill="white"/>
</mask>
<g mask="url(#mask0_56_1019)">
<circle cx="24.6301" cy="24.634" r="23.3684" fill="#F9F9F8"/>
<path d="M47.7592 24.0531C47.7592 37.0743 37.1992 47.6343 24.178 47.6343C15.1945 47.6343 7.38272 42.6084 3.40157 35.2201C1.61333 31.8978 0.601562 28.0954 0.601562 24.0578C0.601562 19.7283 1.76392 15.6766 3.81098 12.1848C4.97331 10.1895 6.41802 8.38713 8.09331 6.82952C10.0462 4.99893 12.3145 3.50715 14.7992 2.4248C17.6745 1.17303 20.851 0.476562 24.1874 0.476562C37.2086 0.476562 47.7686 11.0366 47.7686 24.0578L47.7592 24.0531Z" stroke="#2D2C2C" stroke-width="1.26316" stroke-miterlimit="10"/>
<path d="M34.2792 19.5952V37.9105C34.2792 39.2611 33.1921 39.9199 31.8415 39.3881L28.091 37.9105V24.2022C28.091 22.8611 27.0039 21.341 25.6533 20.8093L5.78978 12.9693L3.80859 12.1834C4.97095 10.1882 6.41566 8.38576 8.09097 6.82812L31.8415 16.2023C33.1921 16.7246 34.2792 18.254 34.2792 19.5952Z" stroke="#2D2C2C" stroke-width="1.26316" stroke-miterlimit="10"/>
<path d="M28.0886 24.1946V42.5146C28.0886 43.8652 27.0016 44.5193 25.651 43.9876L3.40157 35.2111C1.61333 31.8887 0.601562 28.0864 0.601562 24.0487C0.601562 19.7193 1.76392 15.6676 3.81098 12.1758L5.79214 12.9616L25.6557 20.8017C27.0063 21.3334 28.0933 22.8535 28.0933 24.1946H28.0886Z" stroke="#2D2C2C" stroke-width="1.26316" stroke-miterlimit="10"/>
<path d="M40.4585 14.9818V33.3112C40.4585 34.6525 39.3714 35.316 38.0302 34.7842L34.2702 33.2971V19.5937C34.2702 18.2525 33.1832 16.7231 31.8326 16.2007L8.08203 6.82656C10.035 4.99597 12.3032 3.50423 14.7879 2.42188L38.0302 11.5889C39.3714 12.1254 40.4585 13.6407 40.4585 14.9818Z" stroke="#2D2C2C" stroke-width="1.26316" stroke-miterlimit="10"/>
</g>
</g>
<defs>
<clipPath id="clip0_56_1019">
<rect width="48" height="48" fill="white"/>
</clipPath>
</defs>
</svg>
