<svg width="24" height="24" viewBox="0 0 24 24" fill="none" xmlns="http://www.w3.org/2000/svg">
<path d="M4.055 7.99015C3.24167 7.42154 2.5575 6.71179 2 5.89456V5.89374C2.74417 6.21456 3.53583 6.4279 4.3625 6.53128C3.5125 6.03159 2.86333 5.24636 2.55833 4.30031C3.35083 4.76554 4.22583 5.09374 5.15833 5.27754C5.91083 4.48821 6.98333 4 8.15333 4C10.4233 4 12.2508 5.81415 12.2508 8.03774C12.2508 8.35774 12.2233 8.66544 12.1558 8.95836C15.5642 8.79426 18.5808 7.18605 20.6075 4.73518C20.9608 5.3399 21.1692 6.03159 21.1692 6.77579C21.1692 8.17395 20.4383 9.41292 19.3475 10.1309C20.0067 10.1186 20.6525 9.92985 21.2 9.63364V9.67795C21.2 11.6398 19.7792 13.2693 17.915 13.6451C18.2492 13.7354 18.6125 13.7781 18.99 13.7781C19.2525 13.7781 19.5175 13.7633 19.7658 13.7091C19.235 15.3075 17.7267 16.4833 15.935 16.5218C17.33 17.5959 19.1017 18.2433 21.0192 18.2433C21.355 18.2433 21.6775 18.2285 22 18.1883C20.1833 19.3411 18.0317 20 15.71 20C8.47417 20 3.75833 14.0562 4.055 7.99015V7.99015Z" fill="#1E1B30"/>
</svg>
